<svg width="31" height="26" viewBox="0 0 31 26" fill="none" xmlns="http://www.w3.org/2000/svg">
<path d="M30.1081 8.87362L25.8405 5.78965V1.26818C25.8405 0.951546 25.564 0.698242 25.2497 0.698242H6.06756C5.75331 0.698242 5.47676 0.951546 5.47676 1.26818V5.78965L1.20918 8.87362C1.05833 8.98128 0.995483 9.15859 0.995483 9.3359L1.01434 9.34223V24.5721C1.01434 24.8888 1.2406 25.1421 1.55486 25.1421H29.7687C30.0829 25.1421 30.3092 24.8888 30.3092 24.5721V9.34223L30.3281 9.3359C30.3218 9.15859 30.2589 8.98128 30.1081 8.87362ZM2.14566 10.4441L11.4602 17.087L2.14566 23.4133V10.4441ZM12.4218 17.7899L15.3318 19.867C15.5266 20.0063 15.7906 20.0063 15.9855 19.867L18.8955 17.7962L28.0403 24.0022H3.27698L12.4218 17.7899ZM19.8508 17.087L29.1716 10.4441V23.4133L19.8508 17.087ZM28.8196 9.3359L25.8405 11.4573V7.18915L28.8196 9.3359ZM24.7092 1.83811V12.2679L15.6586 18.7018L6.60808 12.2679V1.83811H24.7092ZM5.47676 11.4573L2.49762 9.3359L5.47676 7.19549V11.4573Z" fill="black"/>
<path d="M10.8819 5.82784H15.4072C15.7215 5.82784 15.9729 5.57459 15.9729 5.25804C15.9729 4.94148 15.7215 4.68823 15.4072 4.68823H10.8819C10.5677 4.68823 10.3163 4.94148 10.3163 5.25804C10.3163 5.57459 10.5677 5.82784 10.8819 5.82784Z" fill="black"/>
<path d="M10.8819 8.99393H20.4353C20.7496 8.99393 21.001 8.74061 21.001 8.42397C21.001 8.10732 20.7496 7.854 20.4353 7.854H10.8819C10.5677 7.854 10.3163 8.10732 10.3163 8.42397C10.3163 8.74061 10.5677 8.99393 10.8819 8.99393Z" fill="black"/>
<path d="M10.8819 12.1604H20.4353C20.7496 12.1604 21.001 11.9071 21.001 11.5906C21.001 11.274 20.7496 11.0208 20.4353 11.0208H10.8819C10.5677 11.0208 10.3163 11.274 10.3163 11.5906C10.3163 11.9071 10.5677 12.1604 10.8819 12.1604Z" fill="black"/>
</svg>
