<svg width="60" height="58" viewBox="0 0 60 58" fill="none" xmlns="http://www.w3.org/2000/svg">
<path d="M14 4.66576H12V6.55434H14V4.66576Z" fill="black"/>
<path d="M18 4.66576H16V6.55434H18V4.66576Z" fill="black"/>
<path d="M22 4.66576H20V6.55434H22V4.66576Z" fill="black"/>
<path d="M1 57.5461H32C32.1978 57.5461 32.391 57.4907 32.5555 57.3869C32.7199 57.2831 32.848 57.1357 32.9237 56.9632C32.9993 56.7906 33.0192 56.6008 32.9806 56.4177C32.942 56.2345 32.8468 56.0663 32.707 55.9342L1.707 26.6611C1.56715 26.5291 1.38898 26.4392 1.19503 26.4028C1.00108 26.3664 0.800045 26.3851 0.617345 26.4565C0.434646 26.528 0.278483 26.649 0.168598 26.8043C0.0587141 26.9595 4.22243e-05 27.142 0 27.3288V56.6018C0 56.8523 0.105357 57.0925 0.292893 57.2695C0.48043 57.4466 0.734784 57.5461 1 57.5461ZM2 29.6083L29.586 55.6575H2V29.6083Z" fill="black"/>
<path d="M17.707 50.2685L7.707 40.8255C7.56715 40.6935 7.38898 40.6036 7.19503 40.5672C7.00108 40.5308 6.80005 40.5495 6.61735 40.6209C6.43465 40.6924 6.27848 40.8134 6.1686 40.9686C6.05871 41.1239 6.00004 41.3064 6 41.4932V50.9361C6 51.1865 6.10536 51.4267 6.29289 51.6038C6.48043 51.7809 6.73478 51.8804 7 51.8804H17C17.1978 51.8803 17.391 51.8249 17.5555 51.7212C17.7199 51.6174 17.848 51.4699 17.9237 51.2974C17.9993 51.1249 18.0192 50.9351 17.9806 50.7519C17.942 50.5688 17.8468 50.4005 17.707 50.2685ZM8 49.9918V43.7727L14.586 49.9918H8Z" fill="black"/>
<path d="M58.878 8.94906C59.5959 8.27111 59.9993 7.35162 59.9993 6.39286C59.9993 5.4341 59.5959 4.51461 58.878 3.83666C58.1601 3.15871 57.1863 2.77785 56.171 2.77785C55.1557 2.77785 54.1819 3.15871 53.464 3.83666L51.964 5.2531C51.871 4.06888 51.3081 2.96145 50.3878 2.15226C49.4674 1.34306 48.2575 0.891755 47 0.88858H13C11.6744 0.89008 10.4036 1.388 9.46622 2.27312C8.52888 3.15824 8.00159 4.35829 8 5.61004V30.1616H10V5.61004C10 4.85872 10.3161 4.13816 10.8787 3.6069C11.4413 3.07563 12.2044 2.77716 13 2.77716H47C47.7956 2.77716 48.5587 3.07563 49.1213 3.6069C49.6839 4.13816 50 4.85872 50 5.61004V7.10769L40.586 15.9973H33.236C32.5236 14.2748 31.3368 12.7632 29.7985 11.6188C28.2603 10.4745 26.4262 9.73883 24.486 9.48797C22.5458 9.23711 20.5698 9.48013 18.7624 10.1919C16.955 10.9037 15.3816 12.0584 14.2051 13.5366C13.0285 15.0149 12.2914 16.7631 12.07 18.6004C11.8485 20.4378 12.1508 22.2977 12.9455 23.9878C13.7402 25.6779 14.9985 27.1369 16.5903 28.214C18.1821 29.2911 20.0497 29.9472 22 30.1144V33.9388C22 34.1893 22.1054 34.4294 22.2929 34.6065C22.4804 34.7836 22.7348 34.8831 23 34.8831H45C45.2652 34.8831 45.5196 34.7836 45.7071 34.6065C45.8946 34.4294 46 34.1893 46 33.9388V21.1097L50 17.3325V36.7717H27C26.7348 36.7717 26.4804 36.8712 26.2929 37.0483C26.1054 37.2254 26 37.4655 26 37.716V45.2703C26 45.5208 26.1054 45.7609 26.2929 45.938C26.4804 46.1151 26.7348 46.2146 27 46.2146H50V47.1589C50 47.9102 49.6839 48.6308 49.1213 49.162C48.5587 49.6933 47.7956 49.9918 47 49.9918H31V51.8804H47C48.3256 51.8789 49.5964 51.3809 50.5338 50.4958C51.4711 49.6107 51.9984 48.4107 52 47.1589V46.2146H59C59.2652 46.2146 59.5196 46.1151 59.7071 45.938C59.8946 45.7609 60 45.5208 60 45.2703V37.716C60 37.4655 59.8946 37.2254 59.7071 37.0483C59.5196 36.8712 59.2652 36.7717 59 36.7717H52V15.4439L58.878 8.94906ZM54.878 5.17189C55.0464 5.00585 55.2483 4.87324 55.4717 4.78184C55.6951 4.69044 55.9357 4.64209 56.1791 4.63962C56.4226 4.63715 56.6642 4.68062 56.8896 4.76746C57.1151 4.85431 57.3199 4.9828 57.4921 5.14538C57.6642 5.30796 57.8003 5.50138 57.8923 5.71427C57.9843 5.92717 58.0303 6.15526 58.0277 6.38518C58.0251 6.61509 57.9738 6.8422 57.8771 7.05319C57.7803 7.26417 57.6398 7.45477 57.464 7.61383L57 8.05198L54.414 5.61004L54.878 5.17189ZM32 19.7744C31.997 21.8638 31.1799 23.879 29.7046 25.4361C28.2292 26.9932 26.1987 27.9831 24 28.2173V17.8858H31.768C31.9201 18.5052 31.998 19.1387 32 19.7744ZM22 16.9415V28.2173C20.4471 28.0558 18.9655 27.5154 17.7009 26.6492C16.4363 25.783 15.4322 24.6209 14.7875 23.2771C14.1428 21.9334 13.8795 20.4543 14.0237 18.9854C14.1679 17.5164 14.7146 16.1082 15.6099 14.8993C16.5052 13.6904 17.7184 12.7223 19.1301 12.0904C20.5417 11.4584 22.1033 11.1844 23.6612 11.2952C25.219 11.4059 26.7195 11.8977 28.015 12.7222C29.3106 13.5466 30.3565 14.6753 31.05 15.9973H23C22.7348 15.9973 22.4804 16.0967 22.2929 16.2738C22.1054 16.4509 22 16.6911 22 16.9415ZM44 32.9945H24V30.1144C25.5248 29.9884 27.0047 29.5621 28.3443 28.863C29.6839 28.1638 30.8535 27.2073 31.7777 26.0552C32.7018 24.903 33.3601 23.5808 33.7099 22.1737C34.0598 20.7667 34.0936 19.306 33.809 17.8858H38.586L36.293 20.0511C36.1531 20.1827 36.0581 20.3507 36.02 20.5336L35.02 25.2551C34.991 25.392 34.9946 25.5334 35.0304 25.6688C35.0662 25.8043 35.1334 25.9307 35.2271 26.0387C35.3208 26.1467 35.4388 26.2337 35.5724 26.2935C35.7061 26.3533 35.8521 26.3844 36 26.3845C36.0672 26.385 36.1343 26.3787 36.2 26.3656L41.2 25.4213C41.3937 25.3853 41.5717 25.2956 41.711 25.1635L44 22.9982V32.9945ZM37.614 22.6337L38.972 23.9161L37.272 24.2362L37.614 22.6337ZM54 38.6603V40.5489H56V38.6603H58V44.326H28V38.6603H30V40.5489H32V38.6603H34V40.5489H36V38.6603H38V40.5489H40V38.6603H42V40.5489H44V38.6603H46V40.5489H48V38.6603H50V40.5489H52V38.6603H54ZM41 23.1607L38.414 20.7187L53 6.94527L55.586 9.38721L41 23.1607Z" fill="black"/>
</svg>
