<svg width="33" height="34" viewBox="0 0 33 34" fill="none" xmlns="http://www.w3.org/2000/svg">
<path d="M3.04591 8.7484C1.78459 10.0937 1.03672 11.8592 0.938656 13.7228C0.577566 17.6581 2.20517 22.0134 5.39569 25.7497C8.4946 29.37 12.2834 31.9622 16.0667 33.0344C17.2705 33.3911 18.5163 33.577 19.7692 33.5872C21.8142 33.6627 23.8149 32.9644 25.3904 31.625C26.0578 31.0905 26.553 30.3624 26.8116 29.5354C27.0701 28.7084 27.0801 27.8207 26.8401 26.9878C26.4952 25.8824 24.97 25.3297 24.0969 25.092C20.901 24.2685 20.2704 24.0861 18.7614 23.655C17.7105 23.3455 17.0853 24.3348 16.6757 24.9925C16.4925 25.2855 16.1044 25.9045 15.9158 25.9653C14.784 25.6558 13.3882 24.6498 11.9277 23.1188H31.0708C31.3567 23.1188 31.6308 23.0024 31.833 22.7951C32.0351 22.5878 32.1487 22.3066 32.1487 22.0134V1.56318C32.1461 1.46548 32.1298 1.36867 32.1002 1.27577C32.0677 1.17679 32.0204 1.08356 31.9601 0.999419C31.9025 0.917313 31.8314 0.846221 31.7499 0.789389C31.6651 0.730155 31.5726 0.683627 31.475 0.651212H31.4373C31.3267 0.565846 31.2028 0.500427 31.0708 0.457764H4.12379C4.01966 0.459908 3.91631 0.476644 3.8166 0.507507H3.77348C3.67719 0.538894 3.58627 0.585515 3.50401 0.645685C3.42249 0.702516 3.35134 0.773609 3.29383 0.855714H3.26688C3.20654 0.93986 3.15927 1.03308 3.12675 1.13207C3.07531 1.26978 3.04794 1.41572 3.04591 1.56318V8.7484ZM18.4919 26.1864C18.5404 26.1035 18.5997 26.0095 18.659 25.9211C19.8824 26.2693 20.707 26.4738 23.5742 27.2365C24.0163 27.3284 24.4372 27.5067 24.8137 27.7616C24.8835 28.1742 24.8414 28.5986 24.6922 28.9884C24.543 29.3783 24.2924 29.7186 23.9676 29.9724C22.3508 31.4371 19.6561 31.7798 16.6488 30.912C13.2588 29.9393 9.83656 27.5958 7.01251 24.3127C4.18847 21.0296 2.78183 17.2712 3.08364 13.9439C3.23454 12.2857 3.85432 10.8763 4.78669 10.1357C5.13357 9.86105 5.53741 9.67194 5.96697 9.58299L6.37117 9.50009C6.68915 9.43376 7.00712 9.36744 7.22809 9.33427C7.25504 9.41165 7.28198 9.52219 7.31971 9.6659C7.35744 9.8096 8.27363 13.5349 8.77485 15.602C7.56223 16.4863 5.69211 17.9068 6.50052 19.471C6.54435 19.5602 6.59293 19.6469 6.64604 19.7307C7.25873 20.7808 7.94499 21.7838 8.6994 22.7319C10.3162 24.8101 12.8115 27.43 15.3661 28.1209C17.0152 28.5409 17.9746 26.9878 18.4919 26.1864ZM10.0521 20.908C9.89046 20.6869 9.73416 20.4769 9.59404 20.2779L9.5132 20.1784L9.14672 19.6257L9.08205 19.5207L8.79102 19.073L8.75329 19.0067C8.66706 18.8685 8.58622 18.7414 8.52694 18.6364C9.00099 18.1255 9.53293 17.6746 10.1114 17.2933C10.6504 16.8953 11.227 16.4863 11.0168 15.7346C10.7258 14.5297 9.4593 9.32322 9.40002 9.05792C8.82335 6.80839 7.7832 6.91341 5.94002 7.3003L5.53582 7.38321C5.42264 7.38321 5.31485 7.43295 5.20167 7.46612V3.86245L16.929 13.3193C17.1193 13.4735 17.3548 13.5574 17.5973 13.5574C17.8398 13.5574 18.0753 13.4735 18.2656 13.3193L29.9929 3.86245V20.908H10.0521ZM27.9557 2.6686L17.5973 11.0477L7.23887 2.6686H27.9557Z" fill="white"/>
</svg>
