<svg width="25" height="31" viewBox="0 0 25 31" fill="none" xmlns="http://www.w3.org/2000/svg">
<path d="M18.8415 21.2019C18.4269 21.8811 17.9778 22.5279 17.5287 23.1425C20.4307 23.757 22.1582 24.8243 22.1582 25.6328C22.1582 26.8295 18.3233 28.6407 12.5191 28.6407C6.71496 28.6407 2.88007 26.8295 2.88007 25.6328C2.88007 24.8243 4.60749 23.7893 7.50957 23.1425C7.06044 22.5279 6.61131 21.8811 6.19673 21.2019C2.88007 22.0105 0.496216 23.4659 0.496216 25.6328C0.496216 29.0611 6.54221 30.8723 12.5191 30.8723C18.496 30.8723 24.542 29.0611 24.542 25.6328C24.542 23.4659 22.1582 22.0105 18.8415 21.2019Z" fill="white"/>
<path d="M13.5902 24.7273C16.0431 21.3313 21.9164 12.8253 21.9164 8.97663C21.9164 4.09296 17.7014 0.147217 12.5192 0.147217C7.33687 0.147217 3.0874 4.09296 3.0874 8.97663C3.0874 12.8253 8.99521 21.3313 11.4482 24.7273C11.9664 25.4064 13.0719 25.4064 13.5902 24.7273ZM8.13149 8.97663C8.13149 6.71267 10.1008 4.86917 12.5192 4.86917C14.9376 4.86917 16.9068 6.71267 16.9068 8.97663C16.9068 11.2406 14.9376 13.0517 12.5192 13.0517C10.1008 13.0517 8.13149 11.2082 8.13149 8.97663Z" fill="white"/>
</svg>
