<svg width="35" height="32" viewBox="0 0 35 32" fill="none" xmlns="http://www.w3.org/2000/svg">
<path d="M31.5 7H3.5C1.56625 7 0 5.43375 0 3.5C0 1.56625 1.56625 0 3.5 0H31.5C33.4338 0 35 1.56625 35 3.5C35 5.43375 33.4338 7 31.5 7Z" fill="white" fill-opacity="0.9"/>
<path d="M31.5 19.25H3.5C1.56625 19.25 0 17.6838 0 15.75C0 13.8162 1.56625 12.25 3.5 12.25H31.5C33.4338 12.25 35 13.8162 35 15.75C35 17.6838 33.4338 19.25 31.5 19.25Z" fill="white" fill-opacity="0.9"/>
<path d="M31.5 31.5H3.5C1.56625 31.5 0 29.9338 0 28C0 26.0662 1.56625 24.5 3.5 24.5H31.5C33.4338 24.5 35 26.0662 35 28C35 29.9338 33.4338 31.5 31.5 31.5Z" fill="white" fill-opacity="0.9"/>
</svg>
