<svg width="60" height="57" viewBox="0 0 60 57" fill="none" xmlns="http://www.w3.org/2000/svg">
<path d="M28.6386 16.6744V30.8937C27.5298 30.2718 26.4086 29.6499 25.2875 29.028C22.4784 27.4668 19.6694 25.9056 16.8542 24.3444C16.4476 24.1176 16.0719 23.8844 15.6407 23.6642V9.45142C15.7639 9.52915 15.9302 9.60689 16.0719 9.68463C16.078 9.6911 16.0842 9.6911 16.0903 9.69758C16.5092 9.93079 16.922 10.1575 17.3409 10.3907C17.4764 10.4685 17.6181 10.5462 17.7536 10.6239C17.8953 10.7017 18.0308 10.7794 18.1725 10.8571C18.4497 11.0126 18.7331 11.1681 19.0103 11.3236C21.8193 12.8848 24.6345 14.433 27.4435 15.9942C27.4559 16.0007 27.462 15.9942 27.4743 16.0007C27.5421 16.0396 27.6099 16.0849 27.6776 16.0849C27.6899 16.1497 27.7023 16.1238 27.7084 16.1303C27.8686 16.2209 28.0226 16.3181 28.1828 16.4088C28.2752 16.4606 28.3552 16.5189 28.4476 16.5708C28.5154 16.5967 28.577 16.642 28.6386 16.6744Z" fill="white"/>
<path d="M44.347 9.47729V23.6771H44.3409C44.1437 23.7743 43.9959 23.865 43.8234 23.9622C41.1437 25.4521 38.4641 26.9356 35.7844 28.4255C35.7351 28.4514 35.692 28.4838 35.6365 28.5097C34.2074 29.3 32.7659 30.0774 31.3491 30.8742V16.6744C31.4723 16.5772 31.6817 16.4865 31.8542 16.3893C34.5339 14.8994 37.2135 13.4095 39.8932 11.926C41.3778 11.1033 42.8686 10.3 44.347 9.47729Z" fill="white"/>
<path d="M42.8193 7.12564C41.7721 7.70864 40.731 8.28517 39.6838 8.86818C36.8747 10.4293 34.0657 11.9905 31.2505 13.5517C30.8316 13.7849 30.4127 14.0181 29.9938 14.2513C28.4476 13.3897 26.9014 12.5346 25.3552 11.6731C22.6263 10.1573 19.9035 8.64145 17.1745 7.12564C18.2218 6.54263 19.2628 5.9661 20.3101 5.38309C23.1191 3.82193 25.9281 2.26077 28.7372 0.699608C29.1561 0.466405 29.5749 0.233203 29.9938 0C31.54 0.861554 33.0862 1.71663 34.6386 2.57818C37.3614 4.094 40.0904 5.60982 42.8193 7.12564Z" fill="white"/>
<path d="M12.9918 42.7935V56.9935C11.8214 56.3845 10.7803 55.7691 9.68378 55.1602C6.87475 53.599 4.07187 52.0377 1.26283 50.483C0.837783 50.2498 0.36961 50.0101 0 49.7769V35.564C0.184805 35.7 0.480493 35.836 0.7269 35.9656C0.763861 35.985 0.794661 36.0045 0.825462 36.0239C1.24435 36.2571 1.66325 36.5033 2.0883 36.7365C2.50719 36.9697 2.92608 37.19 3.34497 37.4491C6.13553 39.0038 8.92608 40.5391 11.7166 42.0874C11.7228 42.0874 11.729 42.0874 11.7351 42.0874C11.7413 42.0874 11.7474 42.0874 11.7474 42.0939C11.7598 42.1004 11.7659 42.1004 11.7782 42.1068C11.8583 42.1522 11.9322 42.1911 12.0123 42.2364C12.3327 42.4178 12.6468 42.5992 12.9733 42.7806C12.9733 42.787 12.9795 42.7935 12.9918 42.7935Z" fill="white"/>
<path d="M28.6386 35.5771V49.777C27.0986 50.6385 25.54 51.5001 23.9877 52.3617C21.2033 53.9099 18.4743 55.4517 15.6407 57V42.7872C15.6407 42.7742 15.6838 42.7677 15.7023 42.7548C15.8563 42.6706 16.0103 42.5864 16.1581 42.5022C17.3285 41.8479 18.5051 41.2001 19.6756 40.5458C21.1848 39.7101 22.694 38.868 24.1971 38.0323C24.7515 37.7214 25.306 37.4169 25.8665 37.1124C26.0021 37.0412 26.1314 36.9634 26.2669 36.8922C26.9014 36.5424 27.5298 36.199 28.1643 35.8427C28.3306 35.7521 28.5154 35.6678 28.6386 35.5771Z" fill="white"/>
<path d="M27.0986 33.2254C26.1129 33.8085 25.0287 34.3915 23.9815 34.9681C21.1725 36.5293 18.3696 38.0906 15.5606 39.6583C15.3511 39.7749 15.1478 39.8915 14.9384 40.0081C14.729 40.1247 14.5195 40.2413 14.3101 40.3579L9.67762 37.7796C6.94867 36.2637 4.22587 34.7478 1.50308 33.2319C2.55031 32.6489 3.59138 32.0723 4.63861 31.4893C7.44764 29.9281 10.2567 28.3733 13.0657 26.8121C13.4846 26.5788 13.9035 26.3132 14.3224 26.1189C14.7105 26.3132 15.0924 26.54 15.4805 26.7538C16.6386 27.4016 17.7844 28.0364 18.9425 28.6843C21.6653 30.2001 24.3881 31.7096 27.0986 33.2254Z" fill="white"/>
<path d="M44.347 42.7935V56.9933C43.1766 56.3843 42.1355 55.7689 41.0328 55.16C38.2238 53.5988 35.4209 52.0376 32.6119 50.4829C32.1869 50.2496 31.7803 50.01 31.3491 49.7768V35.551C32.4579 36.1729 33.5791 36.7948 34.7002 37.4232C37.5092 38.9844 40.3183 40.5521 43.1335 42.1133C43.2135 42.1586 43.2875 42.1975 43.3675 42.2428C43.694 42.4242 43.9774 42.6121 44.347 42.7935Z" fill="white"/>
<path d="M60 35.5835C58.7433 36.2831 57.4805 36.9698 56.2177 37.6694C56.2115 37.6759 56.2053 37.6759 56.1992 37.6824C56.1068 37.7342 56.0205 37.7795 55.9281 37.8313C55.8357 37.8832 55.7495 37.9285 55.6632 37.9803C55.6324 37.9998 55.5955 38.0192 55.5647 38.0322C55.5832 38.0257 55.5955 38.0127 55.614 38.0063C55.6078 38.0127 55.5955 38.0127 55.5893 38.0192C55.5832 38.0257 55.5708 38.0257 55.5647 38.0322C52.885 39.5221 50.2053 41.0055 47.5318 42.4955C47.5133 42.5084 47.4887 42.5149 47.4702 42.5279C47.3285 42.6121 47.193 42.6898 47.0205 42.774L47.0144 42.7675H46.9959V56.9931C49.8296 55.4514 52.5585 53.9031 55.3429 52.3549C56.8953 51.4933 58.4538 50.6318 59.9938 49.7702L60 35.5835C59.9938 35.5835 60 35.5835 60 35.5835ZM47.0144 42.7805C47.1622 42.6963 47.3101 42.6121 47.4641 42.5343C47.3162 42.6186 47.1869 42.7028 47.0144 42.7805Z" fill="white"/>
<path d="M58.4908 33.2321C57.4435 33.8151 56.4025 34.3916 55.3552 34.9746C52.5462 36.5358 49.7372 38.097 46.9281 39.6582C46.7741 39.7424 46.614 39.8331 46.46 39.9173C46.4538 39.9173 46.4476 39.9238 46.4476 39.9238C46.2813 40.0145 46.115 40.1117 45.9425 40.2088C45.8501 40.2607 45.7639 40.2995 45.6776 40.3643C44.1314 39.4574 42.5852 38.6347 41.0329 37.7731C39.6715 37.0152 38.3039 36.2508 36.9425 35.4929C36.2587 35.1107 35.5811 34.735 34.8973 34.3592C34.7248 34.2621 34.5585 34.1714 34.386 34.0742C33.8747 33.7892 33.3696 33.5042 32.8583 33.2191C33.8994 32.6426 34.9466 32.0596 35.9877 31.483C38.7967 29.9218 41.6058 28.3607 44.4209 26.7995C44.8398 26.5663 45.2587 26.3331 45.6776 26.0999C47.2238 26.9614 48.77 27.823 50.3162 28.6781C53.039 30.2004 55.7618 31.7162 58.4908 33.2321Z" fill="white"/>
</svg>
