<svg width="48" height="54" viewBox="0 0 48 54" fill="none" xmlns="http://www.w3.org/2000/svg">
<path d="M2.71309 45.071V54H48V45.071H42.0025V36.5146H29.689C29.4677 35.1186 28.7228 33.8703 27.5615 32.9825L13.0778 21.9046L17.1325 16.33L25.677 19.5944C26.3261 20.2074 27.2175 20.5886 28.2009 20.5886C30.0913 20.5886 31.6296 19.1812 31.7649 17.4083L37.9 8.19389C38.1647 8.24242 38.4384 8.27025 38.7189 8.27025C40.8524 8.27025 42.6262 6.78934 42.9822 4.84882H47.2529V3.42143H42.9822C42.6255 1.48091 40.8516 0 38.7189 0C36.441 0 34.5722 1.68717 34.4025 3.81967L25.1894 12.4482L16.0272 8.72273C15.1522 8.17033 14.1434 7.87201 13.095 7.87201C11.3451 7.87201 9.70665 8.6899 8.71056 10.0588L4.29621 16.1323C3.77274 16.8517 3.4624 17.6681 3.37266 18.516C2.56951 18.8778 1.85235 19.4017 1.29075 20.0711C0.309612 21.2387 -0.135338 22.7018 0.0359119 24.1898C0.207909 25.6779 0.977411 27.0125 2.20158 27.9489L14.4725 37.3346L6.52545 45.071H2.71309ZM28.2001 19.1619C27.0447 19.1619 26.104 18.2648 26.104 17.1621C26.104 16.0595 27.0447 15.1624 28.2001 15.1624C29.3555 15.1624 30.2947 16.0595 30.2947 17.1621C30.2947 18.2648 29.3555 19.1619 28.2001 19.1619ZM38.7181 1.4281C40.2825 1.4281 41.5546 2.6428 41.5546 4.13584C41.5546 5.62888 40.2825 6.84358 38.7181 6.84358C37.1537 6.84358 35.8802 5.62888 35.8802 4.13584C35.8802 2.6428 37.1537 1.4281 38.7181 1.4281ZM34.662 5.57678C35.0052 6.45391 35.6498 7.18829 36.4777 7.66861L31.2938 15.4535C30.7038 14.4844 29.6396 13.8206 28.4005 13.7543L26.6783 13.0541L34.662 5.57678ZM18.0485 11.0965L26.1204 14.3794C25.2088 15.0011 24.6091 16.0138 24.6091 17.1621C24.6091 17.3363 24.6368 17.5033 24.6629 17.6703L17.9266 15.0967C18.5488 13.8121 18.5705 12.3647 18.0485 11.0965ZM46.5044 46.4984V52.5726H4.20872V46.4984H46.5044ZM5.52487 16.9466L9.93922 10.8731C10.6556 9.88747 11.8357 9.29939 13.095 9.29939C13.878 9.29939 14.6333 9.52563 15.2786 9.95385C17.0158 11.105 17.4488 13.391 16.2433 15.0496L11.826 21.1224C11.1103 22.1087 9.93099 22.6968 8.67242 22.6968C7.88946 22.6968 7.13417 22.4713 6.4888 22.0431C5.64676 21.485 5.08216 20.6478 4.90045 19.685C4.71873 18.7223 4.93933 17.7502 5.52487 16.9466ZM3.1356 26.8355C2.22327 26.1375 1.65044 25.1426 1.52257 24.0335C1.39394 22.9245 1.72597 21.8339 2.45734 20.964C2.7445 20.6221 3.08924 20.3338 3.46689 20.0954C3.75105 21.3658 4.51308 22.4706 5.6363 23.2149C6.53367 23.8094 7.5836 24.1235 8.67317 24.1235C9.92576 24.1235 11.1185 23.6974 12.0615 22.9559L26.6282 34.0952C27.5405 34.7931 28.1134 35.788 28.2412 36.8971C28.3699 38.0062 28.0378 39.0967 27.3065 39.9674C25.7966 41.7645 23.0379 42.0557 21.1535 40.6147L3.1356 26.8355ZM15.645 38.2317L20.2179 41.7288C21.2985 42.5553 22.596 42.9578 23.8837 42.9571C25.6059 42.9571 27.3132 42.2398 28.4723 40.8602C29.1872 40.0102 29.6135 39.0018 29.7279 37.942H40.5069V45.071H8.62008L15.645 38.2317Z" fill="white"/>
</svg>
