<svg width="47" height="64" viewBox="0 0 47 64" fill="none" xmlns="http://www.w3.org/2000/svg">
<path d="M18.9731 46.3342L15.711 47.3993C15.3782 47.4659 15.1119 47.5325 14.779 47.5325C13.6473 47.5325 12.6487 46.9333 12.1161 45.9347L10.585 42.8724L9.32011 42.7393L2.86261 56.5197C2.33003 57.5849 3.26204 58.7166 4.39377 58.5169L9.05382 57.6514C9.65297 57.5183 10.2521 57.7846 10.585 58.3837L12.8484 62.5778C13.381 63.5764 14.9122 63.5098 15.3782 62.5112L21.8357 48.7973C21.7691 48.7308 21.7026 48.7308 21.636 48.6642L18.9731 46.3342Z" fill="white"/>
<path d="M37.7465 42.7393L36.415 42.8724L34.8839 45.9347C34.3513 46.9333 33.3527 47.5325 32.221 47.5325C31.8881 47.5325 31.6218 47.4659 31.289 47.3993L28.0269 46.3342L25.4306 48.531C25.364 48.5976 25.2974 48.6642 25.2309 48.6642L31.6884 62.3781C32.1544 63.4432 33.619 63.5098 34.2181 62.4446L36.5482 58.2506C36.881 57.718 37.4802 57.4517 38.0793 57.5183L42.7394 58.3837C43.8711 58.5835 44.8031 57.4517 44.2705 56.3866L37.7465 42.7393Z" fill="white"/>
<path d="M23.5 9.91895C16.0439 9.91895 9.91926 15.977 9.91926 23.4997C9.91926 31.0223 16.0439 37.0804 23.5 37.0804C30.9561 37.0804 37.0807 30.9558 37.0807 23.4997C37.0807 16.0436 30.9561 9.91895 23.5 9.91895ZM31.2889 21.3028L28.1601 24.6314C28.0269 24.7646 28.0269 24.8977 28.0269 25.0308L28.5595 29.5578C28.6261 29.9572 28.2266 30.2235 27.8272 30.0903L23.6997 28.1597C23.5666 28.0932 23.4334 28.0932 23.3003 28.1597L19.1728 30.0903C18.8399 30.2901 18.4405 29.9572 18.4405 29.5578L18.9731 25.0308C18.9731 24.8977 18.9731 24.7646 18.8399 24.6314L15.711 21.3028C15.4448 21.0365 15.5779 20.5039 15.9773 20.4374L20.4377 19.5719C20.5708 19.5719 20.704 19.4388 20.7705 19.3056L22.9674 15.3113C23.1671 14.9784 23.6331 14.9784 23.8329 15.3113L26.0297 19.3056C26.0963 19.4388 26.2295 19.5053 26.3626 19.5719L30.8229 20.4374C31.3555 20.5039 31.5552 20.9699 31.2889 21.3028Z" fill="white"/>
<path d="M46.8003 23.966C47.0666 23.6997 47.0666 23.3003 46.8003 23.034L44.0043 19.772C43.8045 19.5722 43.8045 19.3059 43.8711 19.0397L45.2025 14.9788C45.3357 14.6459 45.136 14.2465 44.8697 14.1133L41.0751 12.1827C40.8754 12.0496 40.6756 11.8499 40.6756 11.5836L40.3428 7.32295C40.3428 6.99008 40.0099 6.65722 39.6771 6.65722L35.3499 6.32436C35.0836 6.32436 34.8839 6.12465 34.7507 5.92493L32.8201 2.13031C32.687 1.79745 32.2875 1.66431 31.9547 1.79745L27.8938 3.1289C27.6275 3.19547 27.3612 3.1289 27.1615 2.99575L23.8994 0.199717C23.6331 -0.0665722 23.2337 -0.0665722 22.9674 0.199717L19.772 2.99575C19.5722 3.19547 19.3059 3.19547 19.0397 3.1289L14.9788 1.79745C14.6459 1.66431 14.2465 1.86402 14.1133 2.13031L12.1827 5.92493C12.0496 6.12465 11.8499 6.32436 11.5836 6.32436L7.32295 6.65722C6.99009 6.65722 6.65722 6.99008 6.65722 7.32295L6.32436 11.5836C6.32436 11.8499 6.12465 12.0496 5.92493 12.1827L2.13031 14.1133C1.79745 14.2465 1.66431 14.6459 1.79745 14.9788L3.1289 19.0397C3.19547 19.3059 3.1289 19.5722 2.99575 19.772L0.199717 23.034C-0.0665722 23.3003 -0.0665722 23.6997 0.199717 23.966L2.99575 27.228C3.19547 27.4278 3.19547 27.694 3.1289 27.9603L1.79745 32.0212C1.66431 32.3541 1.86402 32.7535 2.13031 32.8867L5.92493 34.8173C6.12465 34.9504 6.32436 35.1501 6.32436 35.4164L6.65722 39.6771C6.65722 40.0099 6.99009 40.3428 7.32295 40.3428L11.5836 40.6756C11.8499 40.6756 12.0496 40.8754 12.1827 41.0751L14.1133 44.8697C14.2465 45.2025 14.6459 45.3357 14.9788 45.2025L19.0397 43.8711C19.3059 43.8045 19.5722 43.8711 19.772 44.0042L23.034 46.8003C23.3003 47.0666 23.6997 47.0666 23.966 46.8003L27.228 44.0042C27.4278 43.8045 27.694 43.8045 27.9603 43.8711L32.0212 45.2025C32.3541 45.3357 32.7535 45.136 32.8867 44.8697L34.8173 41.0751C34.9504 40.8754 35.1501 40.6756 35.4164 40.6756L39.6771 40.3428C40.0099 40.3428 40.3428 40.0099 40.3428 39.6771L40.6756 35.4164C40.6756 35.1501 40.8754 34.9504 41.0751 34.8173L44.8697 32.8867C45.2025 32.7535 45.3357 32.3541 45.2025 32.0212L43.8711 27.9603C43.8045 27.694 43.8711 27.4278 44.0043 27.228L46.8003 23.966ZM23.5 39.3442C14.779 39.3442 7.65581 32.221 7.65581 23.5C7.65581 14.779 14.779 7.65581 23.5 7.65581C32.221 7.65581 39.3442 14.779 39.3442 23.5C39.3442 32.221 32.221 39.3442 23.5 39.3442Z" fill="white"/>
</svg>
