<svg width="118" height="61" viewBox="0 0 118 61" fill="none" xmlns="http://www.w3.org/2000/svg">
<path d="M47.9717 21.9722C47.9717 19.629 48.5689 17.4124 49.5282 15.3223C50.486 13.2337 51.8748 11.3993 53.5742 9.81919C55.2722 8.24026 57.2617 7.00427 59.4818 6.11213C61.7011 5.22116 64.113 4.77421 66.6897 4.77421C66.9347 4.77421 67.1856 4.77863 67.4275 4.78629C64.3154 1.82052 60.109 -4.11668e-06 55.4746 -4.11668e-06C45.8939 -4.11668e-06 38.011 7.77886 38.011 17.3744C38.011 24.3693 42.3824 30.3977 47.9717 33.1522V21.9722" fill="#C2212B"/>
<path d="M69.8279 10.889C68.8416 10.6347 67.7999 10.5068 66.7044 10.5068C65.0047 10.5068 63.4017 10.8127 61.8952 11.424C60.3873 12.0357 59.0859 12.8515 57.9901 13.8701C56.8931 14.8901 56.0524 16.0998 55.3946 17.5008C54.7371 18.9027 54.4435 20.3935 54.4435 21.9721V34.7126C54.7377 34.7358 55.1422 34.7488 55.5134 34.7488C65.0941 34.7488 72.8432 26.97 72.8432 17.3744C72.8432 15.3214 72.4781 13.3521 71.8254 11.5236C71.175 11.2776 70.5042 11.0643 69.8279 10.889" fill="#B1B1B0"/>
<path d="M1.97578 54H3.54834V48.7985H13.6692C15.7659 48.7985 16.7538 49.9476 16.7538 51.4194V54H18.3667V51.4396C18.3667 49.8468 17.4796 48.5968 15.6651 48.113C17.5602 47.6896 18.7296 46.3388 18.7296 44.3429C18.7296 41.984 17.1369 40.2099 13.7901 40.2099H1.97578V54ZM3.54834 47.4073V41.601H13.9111C16.3707 41.601 17.1369 43.1534 17.1369 44.5042C17.1369 45.8751 16.3304 47.4073 13.9111 47.4073H3.54834ZM30.7882 40.0284C24.7399 40.0284 21.3126 41.4598 21.3126 47.1049C21.3126 52.75 24.7399 54.1814 30.7882 54.1814C36.8365 54.1814 40.2438 52.75 40.2438 47.1049C40.2438 41.4598 36.8365 40.0284 30.7882 40.0284ZM30.7882 52.7097C25.748 52.7097 22.9053 51.8629 22.9053 47.1049C22.9053 42.3469 25.748 41.5203 30.7882 41.5203C35.8285 41.5203 38.651 42.3469 38.651 47.1049C38.651 51.8629 35.8285 52.7097 30.7882 52.7097ZM50.1272 54V41.6211H57.5062V40.2099H41.1959V41.6211H48.5748V54H50.1272ZM75.9809 41.7018V40.2099H65.1544C60.4972 40.2099 58.6626 42.5082 58.6626 47.1049C58.6626 51.7218 60.5174 54 65.1544 54H75.9809V52.5081H65.1544C61.7271 52.5081 60.3763 50.9557 60.2553 47.8106H75.6382V46.3993H60.2553C60.3561 43.2542 61.7271 41.7018 65.1544 41.7018H75.9809ZM79.2531 54H80.8257V48.7985H90.9465C93.0433 48.7985 94.0312 49.9476 94.0312 51.4194V54H95.644V51.4396C95.644 49.8468 94.7569 48.5968 92.9425 48.113C94.8376 47.6896 96.0069 46.3388 96.0069 44.3429C96.0069 41.984 94.4142 40.2099 91.0675 40.2099H79.2531V54ZM80.8257 47.4073V41.601H91.1884C93.6481 41.601 94.4142 43.1534 94.4142 44.5042C94.4142 45.8751 93.6078 47.4073 91.1884 47.4073H80.8257ZM111.332 42.8913C110.404 41.0163 109.336 40.0284 107.4 40.0284C105.465 40.0284 104.356 41.0163 103.449 42.8913L98.0254 54H99.6988L101.695 49.9073H113.086L115.082 54H116.775L111.332 42.8913ZM112.38 48.5162H102.4L104.981 43.234C105.505 42.1453 106.17 41.4397 107.4 41.4397C108.61 41.4397 109.275 42.1453 109.799 43.234L112.38 48.5162Z" fill="#C2212B"/>
</svg>
